<svg xmlns="http://www.w3.org/2000/svg" xmlns:xlink="http://www.w3.org/1999/xlink" viewBox="0,0,256,256" width="60px" height="60px"><g fill-opacity="0.94118" fill="#ff0529" fill-rule="nonzero" stroke="none" stroke-width="1" stroke-linecap="butt" stroke-linejoin="miter" stroke-miterlimit="10" stroke-dasharray="" stroke-dashoffset="0" font-family="none" font-weight="none" font-size="none" text-anchor="none" style="mix-blend-mode: normal"><g transform="scale(2.56,2.56)"><path d="M49.99805,17c-5.04964,0.0005 -11.0137,0.03955 -16.06836,0.10938c-5.05466,0.06983 -9.13485,0.16257 -10.64844,0.29492c-0.14908,0.01343 -0.29325,0.06015 -0.42187,0.13672c-1.82546,1.08377 -4.11391,3.4246 -6.0957,5.79688c-0.99089,1.18614 -1.88312,2.37158 -2.55078,3.41016c-0.66767,1.03857 -1.17362,1.78054 -1.20508,2.77539c-0.00018,0.01107 -0.00018,0.02214 0,0.0332v3.08789c0,2.26912 1.04508,4.33786 2.5332,5.84766c0.69882,0.709 1.50358,1.29904 2.36523,1.73242c-0.29015,3.24414 -0.42534,6.31188 -0.4707,8.58789c-0.00006,0.00651 -0.00006,0.01302 0,0.01953v0.01367c-0.007,1.22072 -0.01159,2.22412 -0.01758,3.61719c-0.00003,0.00456 -0.00003,0.00911 0,0.01367c0.03162,3.58094 -0.14862,9.47754 0.15625,15.00195c0.15244,2.7622 0.42355,5.43529 0.91992,7.7168c0.49637,2.28151 1.17721,4.19212 2.4043,5.44336c0.13289,0.13543 0.30156,0.23027 0.48633,0.27344c6.26017,1.4615 17.40279,2.08388 28.63086,2.08789h0.00195c11.22819,-0.003 22.37145,-0.6268 28.63086,-2.08398c0.18477,-0.04317 0.35344,-0.138 0.48633,-0.27344c1.2267,-1.25148 1.90799,-3.16375 2.4043,-5.44531c0.49631,-2.28157 0.76742,-4.95277 0.91992,-7.71484c0.305,-5.52414 0.12463,-11.42053 0.15625,-15c0.00003,-0.00456 0.00003,-0.00911 0,-0.01367c-0.006,-1.39533 -0.01058,-2.39964 -0.01758,-3.62305v-0.00781c0.00008,-0.00716 0.00008,-0.01432 0,-0.02148c-0.04809,-2.26859 -0.18017,-5.32945 -0.4707,-8.56836c0.87639,-0.43448 1.69296,-1.03405 2.40234,-1.75391c1.48776,-1.50971 2.5332,-3.58015 2.5332,-5.84961v-3.08789c-0.00047,-0.01108 -0.00112,-0.02215 -0.00195,-0.0332c-0.03321,-0.99959 -0.54233,-1.7409 -1.2168,-2.7793c-0.67447,-1.0384 -1.57704,-2.22432 -2.57617,-3.41016c-1.99826,-2.37166 -4.30135,-4.71074 -6.12305,-5.79297c-0.1441,-0.08522 -0.30729,-0.1329 -0.47461,-0.13867c-9.77919,-0.34343 -16.57493,-0.40334 -26.67187,-0.40234zM50,19c9.97127,-0.00099 16.71649,0.06443 26.28906,0.39648c1.3414,0.85173 3.5958,3.02681 5.44922,5.22656c0.95749,1.13642 1.81942,2.27245 2.42773,3.20898c0.60831,0.93654 0.8987,1.8244 0.89648,1.75781v3.05469c0,1.64654 -0.78504,3.25603 -1.95703,4.44531c-1.17199,1.18928 -2.70821,1.91211 -4.02344,1.91211c-3.48662,0 -6.3125,-2.57237 -6.3125,-5.93164c-0.00125,-0.06637 -0.0091,-0.13245 -0.02344,-0.19727c-0.01447,-0.06508 -0.0354,-0.12854 -0.0625,-0.18945c-0.02668,-0.06105 -0.0594,-0.11928 -0.09766,-0.17383c-0.01883,-0.02769 -0.03904,-0.05442 -0.06055,-0.08008c-0.02221,-0.02526 -0.04568,-0.04937 -0.07031,-0.07227c-0.04857,-0.04553 -0.10157,-0.0861 -0.1582,-0.12109c-0.05619,-0.03511 -0.11572,-0.06455 -0.17773,-0.08789c-0.09396,-0.03542 -0.19273,-0.05649 -0.29297,-0.0625c-0.06657,-0.00339 -0.1333,-0.00012 -0.19922,0.00977c-0.13263,0.01871 -0.26016,0.06388 -0.375,0.13281c-0.02827,0.0175 -0.05565,0.03641 -0.08203,0.05664c-0.05387,0.03984 -0.1036,0.08499 -0.14844,0.13477c-0.02212,0.02498 -0.04298,0.05106 -0.0625,0.07813c-0.03882,0.05384 -0.07219,0.11142 -0.09961,0.17188c-0.02776,0.06084 -0.04936,0.12431 -0.06445,0.18945c-0.01513,0.06539 -0.02363,0.13213 -0.02539,0.19922c-0.00002,0.00391 -0.00002,0.00781 0,0.01172c0,3.37847 -2.71372,5.93164 -6.19922,5.93164c-3.48549,0 -6.09375,-2.53533 -6.09375,-5.93164c-0.00773,-0.54677 -0.45318,-0.98596 -1,-0.98596c-0.54682,0 -0.99227,0.43919 -1,0.98596c0,3.34381 -2.91768,5.93164 -6.4043,5.93164h-0.07227c-3.48662,0 -6.40039,-2.58732 -6.40039,-5.93164c-0.00773,-0.54677 -0.45318,-0.98596 -1,-0.98596c-0.54682,0 -0.99227,0.43919 -1,0.98596c0,3.39614 -2.60908,5.93164 -6.0957,5.93164c-3.48774,0 -6.20117,-2.553 -6.20117,-5.93164c-0.00773,-0.54677 -0.45318,-0.98596 -1,-0.98596c-0.54682,0 -0.99227,0.43919 -1,0.98596c0,3.35927 -2.82588,5.93164 -6.3125,5.93164c-1.31573,0 -2.85301,-0.72266 -4.02539,-1.91211c-1.17238,-1.18945 -1.95703,-2.79944 -1.95703,-4.44531v-3.05664c-0.002,0.06185 0.28476,-0.8234 0.88672,-1.75977c0.60196,-0.93637 1.45519,-2.07287 2.4043,-3.20898c1.84131,-2.20411 4.08818,-4.38453 5.42578,-5.23047c1.37721,-0.10764 5.31761,-0.2114 10.23242,-0.2793c5.04334,-0.06971 11.00361,-0.10888 16.04297,-0.10937zM49.99805,21c-1.1086,0 -2.25246,0.00186 -3.41602,0.00586c-0.18026,-0.00175 -0.34751,0.09367 -0.43774,0.24973c-0.09023,0.15606 -0.08948,0.34861 0.00197,0.50396c0.09145,0.15535 0.25944,0.24946 0.43968,0.2463c1.16245,-0.00404 2.30471,-0.00586 3.41211,-0.00586h0.24414c9.18508,0 15.67759,0.05328 24.23047,0.33008c0.27614,0.00863 0.507,-0.20823 0.51563,-0.48437c0.00863,-0.27614 -0.20823,-0.507 -0.48437,-0.51562c-8.56512,-0.2772 -15.07279,-0.33008 -24.26172,-0.33008zM43.5,21.01953c-7.8811,0.04402 -15.8974,0.16103 -18.98437,0.3125c-0.10145,0.00533 -0.19888,0.04144 -0.2793,0.10352c-0.863,0.65988 -1.87914,1.65355 -2.88867,2.74805c-0.18715,0.20333 -0.17403,0.51988 0.0293,0.70703c0.20333,0.18715 0.51988,0.17403 0.70703,-0.0293c0.9486,-1.02844 1.89116,-1.93271 2.6543,-2.53125c3.08926,-0.14664 10.96413,-0.26696 18.76758,-0.31055c0.18018,0.00126 0.34711,-0.09451 0.43695,-0.25069c0.08985,-0.15619 0.08872,-0.34863 -0.00295,-0.50375c-0.09167,-0.15512 -0.25971,-0.24893 -0.43986,-0.24556zM76.71484,22.42383c-0.20395,0.00529 -0.38424,0.13396 -0.45554,0.32511c-0.07131,0.19115 -0.01933,0.40646 0.13132,0.54403c1.12989,1.06619 2.41227,2.48261 3.48633,3.79492c1.07406,1.31231 1.95154,2.55506 2.23242,3.14063c0.11919,0.24918 0.41782,0.35455 0.66699,0.23535c0.24918,-0.11919 0.35455,-0.41782 0.23535,-0.66699c-0.38012,-0.79243 -1.26364,-2.00256 -2.36133,-3.34375c-1.09769,-1.34119 -2.39615,-2.77886 -3.57227,-3.88867c-0.09711,-0.09405 -0.22816,-0.14478 -0.36328,-0.14062zM19.93359,26.05664c-0.14712,0.00398 -0.28502,0.07257 -0.37695,0.1875c-1.16228,1.41698 -2.10824,2.71455 -2.50195,3.54688c-0.07643,0.16154 -0.06087,0.35159 0.04082,0.49854c0.10169,0.14696 0.27407,0.22849 0.45218,0.21388c0.17811,-0.01461 0.3349,-0.12313 0.41129,-0.28469c0.29029,-0.61367 1.23338,-1.95282 2.37109,-3.33984c0.12712,-0.1507 0.15383,-0.36202 0.0682,-0.53961c-0.08563,-0.17758 -0.26761,-0.28828 -0.46468,-0.28266zM28.29297,36.67969c1.36927,2.56195 4.05785,4.32227 7.21094,4.32227c3.14752,0 5.77995,-1.76401 7.12109,-4.31836c1.42629,2.57035 4.2177,4.31836 7.375,4.31836h0.07227c3.1573,0 5.94978,-1.74799 7.37695,-4.31836c1.34075,2.55434 3.97419,4.31836 7.12109,4.31836c3.15128,0 5.83934,-1.75914 7.20898,-4.32031c1.40154,2.56631 4.1478,4.32031 7.30273,4.32031c0.36715,0 0.73068,-0.04352 1.0918,-0.10742c0.25569,3.00117 0.37875,5.83525 0.42383,7.95703c-0.00001,0.00195 -0.00001,0.00391 0,0.00586v0.00195c0.007,1.2217 0.01158,2.22327 0.01758,3.61719c-0.03202,3.66507 0.14567,9.49887 -0.15234,14.89648c-0.14912,2.70093 -0.41969,5.28933 -0.87891,7.40039c-0.42852,1.96994 -1.06396,3.43735 -1.73828,4.23828c-5.92741,1.32529 -16.83643,1.98533 -27.82812,1.98828h-0.00195c-10.99166,-0.00393 -21.90145,-0.66136 -27.82812,-1.99023c-0.67476,-0.80038 -1.30953,-2.26954 -1.73828,-4.24023c-0.45926,-2.11093 -0.72984,-4.69934 -0.87891,-7.40039c-0.29789,-5.39785 -0.12032,-11.23184 -0.15234,-14.89844v-0.00781c-0.00001,-0.00096 0.00001,-0.00291 0,-0.00391c0.006,-1.38764 0.0106,-2.38879 0.01758,-3.60742c0.00001,-0.00195 0.00001,-0.00391 0,-0.00586c0.04239,-2.12211 0.16694,-4.95633 0.42188,-7.95898c0.37424,0.06869 0.75202,0.11523 1.13281,0.11523c3.15584,0 5.90161,-1.75471 7.30273,-4.32227zM37.45703,45c-0.52314,0 -2.16612,0.02278 -3.92383,1.19141c-1.75771,1.16862 -3.65295,3.42826 -5.16211,7.66602c-0.00793,0.02188 -0.0151,0.04403 -0.02148,0.06641l-3.13281,11.23828c0,0.00065 0,0.0013 0,0.00195c-0.59597,2.14495 -0.86299,3.80267 -0.83984,5.14844c0.02315,1.34577 0.36011,2.42415 1.02734,3.19141c0.66723,0.76726 1.58543,1.13733 2.50195,1.3125c0.91652,0.17517 1.87532,0.18208 2.83984,0.18359c0.01302,0.00025 0.02604,0.00025 0.03906,0c5.66135,-0.21168 9.04749,-4.15278 9.5625,-8.38867c2.99682,0.43541 6.29162,0.71484 9.66602,0.71484h0.00195c3.37445,0 6.67023,-0.27942 9.66797,-0.71484c0.51495,4.23578 3.90242,8.17997 9.56445,8.38867c0.01302,0.00025 0.02604,0.00025 0.03906,0c0.96427,-0.0015 1.92145,-0.0084 2.83789,-0.18359c0.91644,-0.17524 1.83485,-0.54698 2.50195,-1.31445c0.6671,-0.76748 1.00422,-1.84528 1.02734,-3.19141c0.02313,-1.34613 -0.24388,-3.00471 -0.83984,-5.15039c-0.00065,0 -0.0013,0 -0.00195,0l-3.13477,-11.23828c-0.00639,-0.02238 -0.01355,-0.04453 -0.02148,-0.06641c-1.5087,-4.23737 -3.40344,-6.49609 -5.16211,-7.66406c-1.75867,-1.16798 -3.40373,-1.19141 -3.92773,-1.19141c-0.08375,0.00064 -0.16708,0.01179 -0.24805,0.0332c-2.04152,0.0154 -4.33002,0.24721 -6.7168,2.61133c-1.82182,-0.17508 -3.69804,-0.28596 -5.58984,-0.2832h-0.00195c-1.8918,-0.0028 -3.7663,0.10633 -5.58984,0.28125c-2.47411,-2.4541 -4.86212,-2.63879 -6.96094,-2.64258c-0.00065,0 -0.0013,0 -0.00195,0zM37.45508,47c2.21628,0.004 3.63167,-0.12535 5.88477,2.33594c0.2143,0.23351 0.5266,0.35162 0.8418,0.31836c1.88431,-0.19618 3.8527,-0.29592 5.82617,-0.29297c0.00065,0 0.0013,0 0.00195,0h0.00195c0.00065,0 0.0013,0 0.00195,0c1.97281,-0.0029 3.94226,0.09868 5.82617,0.29492c0.31454,0.03262 0.62597,-0.08543 0.83984,-0.31836c2.25502,-2.45944 3.66598,-2.32816 5.88086,-2.33398h0.00586c0.00912,-0.00053 0.01824,-0.00118 0.02734,-0.00195c0.52842,-0.00041 1.48491,-0.01325 2.79297,0.85547c1.32237,0.87822 2.97491,2.7138 4.38086,6.6543l3.11914,11.18555c0.56452,2.03303 0.78551,3.53462 0.76758,4.57813c-0.01793,1.04394 -0.25046,1.58624 -0.53711,1.91602c-0.28665,0.32977 -0.70656,0.53383 -1.36719,0.66016c-0.65225,0.12472 -1.50304,0.14452 -2.43555,0.14648c-5.19421,-0.19554 -7.83789,-3.8377 -7.83789,-7.44336c-0.00016,-0.29346 -0.12921,-0.57203 -0.35294,-0.76193c-0.22374,-0.18989 -0.51958,-0.27194 -0.80916,-0.2244c-3.06777,0.50347 -6.68463,0.75781 -10.29883,0.75781h-0.00195c-3.6142,0 -7.23013,-0.25435 -10.29687,-0.75781c-0.28958,-0.04754 -0.58543,0.03451 -0.80916,0.2244c-0.22374,0.18989 -0.35278,0.46847 -0.35294,0.76193c0,3.60679 -2.64299,7.24505 -7.83789,7.44336c-0.93276,-0.002 -1.7831,-0.02179 -2.43555,-0.14648c-0.66082,-0.1263 -1.08054,-0.33054 -1.36719,-0.66016c-0.28664,-0.32962 -0.51916,-0.87061 -0.53711,-1.91406c-0.01795,-1.04345 0.20255,-2.54457 0.76758,-4.57812l3.11133,-11.16992l0.00195,-0.00195c1.4076,-3.95111 3.05937,-5.79002 4.38281,-6.66992c1.3225,-0.87926 2.29226,-0.85746 2.81445,-0.85742zM62.54102,49.00391c-0.85249,0.0025 -1.49095,-0.002 -2.10156,0.14258c-0.61061,0.14456 -1.15973,0.45475 -1.73633,0.98828c-0.1398,0.11915 -0.20302,0.30537 -0.16466,0.48501c0.03836,0.17964 0.17213,0.32379 0.34841,0.37544c0.17628,0.05165 0.36669,0.0025 0.49594,-0.12803c0.4944,-0.45747 0.84172,-0.6426 1.28711,-0.74805c0.44539,-0.10544 1.02249,-0.11274 1.875,-0.11523c0.18026,0.00175 0.34751,-0.09367 0.43774,-0.24973c0.09023,-0.15606 0.08948,-0.34861 -0.00197,-0.50396c-0.09145,-0.15535 -0.25944,-0.24946 -0.43968,-0.2463zM64.78711,50.0957c-0.20376,-0.00232 -0.38855,0.11922 -0.4671,0.30724c-0.07856,0.18802 -0.03517,0.4049 0.10968,0.54823c1.0916,1.11711 1.96799,3.06715 2.47461,4.46484l1.16602,4.17383l1.92773,6.91211c0.04231,0.17823 0.17868,0.31906 0.35546,0.36708c0.17678,0.04801 0.36566,-0.00447 0.49232,-0.13681c0.12666,-0.13234 0.17082,-0.32334 0.11511,-0.49784l-1.92773,-6.91211l-1.17187,-4.20312c-0.00342,-0.01252 -0.00733,-0.0249 -0.01172,-0.03711c-0.52779,-1.45781 -1.40255,-3.4971 -2.70508,-4.83008c-0.09308,-0.09832 -0.22204,-0.1547 -0.35742,-0.15625zM49.98047,51.05859c-0.01241,0.00084 -0.02479,0.00214 -0.03711,0.00391c-0.0085,0.00108 -0.01696,0.00239 -0.02539,0.00391c-0.00391,0.0006 -0.00782,0.00126 -0.01172,0.00195c-0.01515,0.00321 -0.03014,0.00712 -0.04492,0.01172c-0.0013,0.00065 -0.00261,0.0013 -0.00391,0.00195c-0.00392,0.00125 -0.00783,0.00256 -0.01172,0.00391c-0.01525,0.00513 -0.03024,0.011 -0.04492,0.01758c-0.00065,0 -0.0013,0 -0.00195,0c-0.00328,0.00192 -0.00653,0.00387 -0.00977,0.00586c-0.0106,0.00484 -0.02102,0.01005 -0.03125,0.01563c-0.00394,0.00255 -0.00785,0.00515 -0.01172,0.00781c-0.00864,0.0056 -0.01711,0.01146 -0.02539,0.01758c-0.00461,0.00318 -0.00917,0.00643 -0.01367,0.00977c-0.01142,0.008 -0.02249,0.01647 -0.0332,0.02539c-0.00669,0.00633 -0.0132,0.01284 -0.01953,0.01953c-0.00065,0.00065 -0.0013,0.0013 -0.00195,0.00195c-0.00463,0.00382 -0.00919,0.00773 -0.01367,0.01172c-0.01476,0.01375 -1.57592,1.44818 -3.30859,3.16797c-0.86974,0.86327 -1.77482,1.79264 -2.54102,2.64258c-0.7662,0.84994 -1.38852,1.6015 -1.7207,2.20508c-0.08681,0.15815 -0.0817,0.3508 0.01337,0.50412c0.09507,0.15333 0.26536,0.24355 0.44561,0.23611l3.47266,-0.14648v3.50781c0,0.00066 0.02518,0.15364 0.02539,0.1543c0.00021,0.00066 0.03535,0.08827 0.05664,0.12109c0.04258,0.06565 0.08499,0.10279 0.11914,0.12891c0.06829,0.05223 0.10937,0.06564 0.14258,0.07813c0.06641,0.02497 0.10536,0.0316 0.14648,0.03906c0.08225,0.01492 0.16565,0.0226 0.26953,0.03125c0.20776,0.0173 0.48574,0.03025 0.81836,0.04102c0.66523,0.02154 1.54283,0.0332 2.42188,0.0332c0.87905,0 1.75664,-0.01166 2.42188,-0.0332c0.33261,-0.01077 0.6106,-0.02372 0.81836,-0.04102c0.10388,-0.0087 0.18728,-0.01633 0.26953,-0.03125c0.04113,-0.0075 0.08008,-0.01409 0.14648,-0.03906c0.0332,-0.01249 0.07428,-0.02589 0.14258,-0.07812c0.03415,-0.02612 0.07656,-0.06325 0.11914,-0.12891c0.02129,-0.03283 0.05643,-0.12044 0.05664,-0.12109c0.00021,-0.00066 0.02539,-0.15363 0.02539,-0.1543v-3.50781l3.48633,0.14453c0.18025,0.00744 0.35054,-0.08279 0.44561,-0.23611c0.09507,-0.15333 0.10018,-0.34597 0.01337,-0.50412c-0.33222,-0.60364 -0.95412,-1.35476 -1.7207,-2.20508c-0.76658,-0.85032 -1.67292,-1.779 -2.54297,-2.64258c-1.72708,-1.71424 -3.28694,-3.14823 -3.31055,-3.16992c-0.00011,-0.0001 -0.01557,-0.01559 -0.01562,-0.01562c-0.00322,-0.00264 -0.00648,-0.00525 -0.00977,-0.00781c-0.09251,-0.08549 -0.21388,-0.13293 -0.33984,-0.13281zM50.00781,52.25c0.27657,0.25524 1.42068,1.30719 2.96875,2.84375c0.86195,0.85554 1.75932,1.77543 2.50586,2.60352c0.45602,0.50583 0.67058,0.83729 0.96875,1.23242l-2.92969,-0.12109c-0.13629,-0.00585 -0.26905,0.04424 -0.36751,0.13864c-0.09846,0.09441 -0.15409,0.22494 -0.15397,0.36136v3.5918c-0.16839,0.01111 -0.35244,0.02293 -0.60937,0.03125c-0.64727,0.02096 -1.51967,0.03125 -2.39062,0.03125c-0.87095,0 -1.74336,-0.01029 -2.39062,-0.03125c-0.25694,-0.00832 -0.44099,-0.02014 -0.60937,-0.03125v-3.5918c0.00011,-0.13641 -0.05551,-0.26695 -0.15397,-0.36136c-0.09846,-0.09441 -0.23122,-0.14449 -0.36751,-0.13864l-2.91406,0.12109c0.29788,-0.3946 0.51182,-0.72577 0.9668,-1.23047c0.74614,-0.82769 1.64227,-1.74829 2.50391,-2.60352c1.54117,-1.52971 2.68341,-2.57849 2.97266,-2.8457zM32.54883,55.04688c-0.21894,0.00892 -0.40656,0.15934 -0.46289,0.37109l-2.49023,8.9375c-0.05571,0.1745 -0.01155,0.36551 0.11511,0.49784c0.12666,0.13234 0.31554,0.18483 0.49232,0.13681c0.17678,-0.04801 0.31315,-0.18885 0.35546,-0.36708l2.49023,-8.93555c0.04543,-0.1546 0.01358,-0.32162 -0.08557,-0.44865c-0.09914,-0.12703 -0.25343,-0.1985 -0.41443,-0.19197zM29.49219,66.00391c-0.21857,0.01109 -0.40454,0.16303 -0.45898,0.375c-0.62754,2.29893 -0.68798,3.48995 -0.64844,4.07617c0.01174,0.17838 0.11779,0.33693 0.27818,0.41587c0.16039,0.07895 0.35072,0.06628 0.49923,-0.03322c0.14852,-0.0995 0.23263,-0.2707 0.22063,-0.44906c-0.02845,-0.42177 0.0068,-1.51703 0.61523,-3.74609c0.04506,-0.15537 0.01217,-0.32294 -0.08827,-0.44975c-0.10044,-0.12681 -0.25603,-0.1972 -0.41759,-0.18892z"></path></g></g></svg>